<svg xmlns="http://www.w3.org/2000/svg" xml:space="preserve" width="850" height="850" data-id="lg_1uHpvyPeJND331QFCi" data-version="1" viewBox="1 1 1330 830"><g data-padding="1"><g transform="translate(10 10)scale(.9726)"><path fill="#e966a0" d="M1017.887.164a364.836 364.836 0 1 0 0 729.672 364.836 364.836 0 1 0 0-729.672"/><rect width="80.032" height="75.71" x="76.04" y="-27.959" fill="none" rx="0" ry="0" transform="translate(296 335.35)scale(6.15)"/><path fill="#060930" d="M1226.857 203.81v67.58h-20.6v185.42h20.6v67.57h-155.76v-67.57h19.78V312.59l-70.05 211.79h-60.98l-72.11-209.73v142.16h19.78v67.57h-135.15v-67.57h20.6V271.39h-20.6v-67.58h188.72l42.85 128.56 41.21-128.56Z"/></g><path fill="transparent" stroke="transparent" d="M635 0h730v730H635z"/></g></svg>